<?xml version="1.0" encoding="utf-8"?>
<!-- Generator: Adobe Illustrator 25.4.1, SVG Export Plug-In . SVG Version: 6.00 Build 0)  -->
<svg version="1.1" id="Layer_1" xmlns="http://www.w3.org/2000/svg" xmlns:xlink="http://www.w3.org/1999/xlink" x="0px" y="0px"
	 viewBox="0 0 1054.58 285.07" style="enable-background:new 0 0 1054.58 285.07;" xml:space="preserve">
<style type="text/css">
	.st0{fill:#939598;}
	.st1{fill:#A6DEF1;}
	.st2{fill:url(#SVGID_1_);}
	.st3{fill:none;stroke:url(#SVGID_00000039113002105870513600000003334434397073881001_);stroke-width:5;stroke-miterlimit:10;}
	.st4{fill:none;stroke:url(#SVGID_00000013177186776009735760000002347585750715444155_);stroke-width:5;stroke-miterlimit:10;}
	.st5{fill:none;stroke:url(#SVGID_00000136371412753147880520000009228343051660022928_);stroke-width:5;stroke-miterlimit:10;}
	.st6{fill:none;stroke:url(#SVGID_00000163069174745264591980000007829495970740620715_);stroke-width:5;stroke-miterlimit:10;}
	.st7{fill:none;stroke:url(#SVGID_00000112592269322039354100000004305135412157521559_);stroke-width:5;stroke-miterlimit:10;}
</style>
<g>
	<g>
		<g>
			<path class="st0" d="M225.27,21.75c-10.39,10.94-17.46,24.31-19.71,39.29c-2.62,17.43,1.79,34.5,5.99,51.31
				c7.67,30.66,14.19,69.22-0.48,98.79c-0.64,1.3-3.22,5.22-0.57,3.57c2.76-1.72,5.35-8.2,6.74-11
				c12.67-25.55,13.12-52.79,9.16-80.51c-2.25-15.74-6.88-30.84-9.96-46.4c-1.55-7.84-2.49-15.78-2.1-23.77
				c0.31-6.32,0.76-8.44,3.38-15.99c3.46-7.12,4.92-8.17,8.8-15.51C226.53,21.43,226.06,20.92,225.27,21.75z"/>
		</g>
		<path class="st0" d="M198.09,217.72c77.61,20.34,128.32-14.81,142.38-67.5S323.22,43.41,270.53,29.35s-113.45,26.67-127.51,79.36
			l-0.16,0.64c0.59-4.1,1.43-8.21,2.52-12.31c15.04-56.37,72.94-89.88,129.31-74.84s89.88,72.94,74.84,129.31
			c-15.04,56.37-72.94,89.88-129.31,74.84c-8.19-2.18-15.89-5.27-23.04-9.13L198.09,217.72z"/>
		<g>
			<path class="st1" d="M250.45,5.27c0.03-0.08,0.07-0.17,0.1-0.25c-8.77,7.07-15.02,15.34-20.98,24.85
				c-4.11,6.55-7.79,13.53-8.57,21.24c-1.63,16.07,5.28,43.69,9.72,64.29c4.78,22.14,6.1,41.83,0.64,63.82
				c-6.87,27.63-20.91,57.31-41.7,76.76c2.25-2.12,7.63-3.55,10.45-5.26c10.93-6.62,19.8-20.92,26.86-31.34
				c8.07-11.91,15.88-28.39,19.58-42.35c10.48-39.54-4.63-74.27-11.38-112.91c-2.62-14.97-1.59-25.72,2.09-37.46
				C245.39,12.15,247.39,12.68,250.45,5.27z"/>
		</g>
		<circle class="st1" cx="267.06" cy="61.27" r="20.38"/>
		<g>
			<path class="st1" d="M305.4,67.82c-5.34,17.84-11.75,31.79-22.06,43.2c-7.05,7.8-21.01,22.99-30.59,27.34
				c-0.29,0.13-1.43,0.67-0.91,1.17c8.45,7.98,18.05,17.34,25.32,26.22c8.68,10.61,23.15,25.99,24.02,48.3
				c0.72,18.6-4.63,52.2-12.85,63.85c-0.6,0.85,9.35-11.97,13.15-20.77c25-57.84,13.02-75.84-33.31-108.71
				c-3.5-2.48-11.64-7.79-12.92-8.8c41.81-18.37,60.53-32.19,57.19-72.7c-0.19-2.35-2.66-19.55-2.24-21.87
				c0.17-0.94-2.3,12.71-2.57,14.19L305.4,67.82z"/>
		</g>
	</g>
	<g>
		<g>
			<path class="st0" d="M415.54,102.11c10.16,0,18.66,3.39,25.51,10.17c6.85,6.78,10.27,15.13,10.27,25.04
				c0,9.82-3.42,18.15-10.25,24.99c-6.83,6.84-15.16,10.26-24.98,10.26c-9.95,0-18.35-3.4-25.19-10.22
				c-6.85-6.81-10.27-15.05-10.27-24.72c0-6.45,1.56-12.42,4.68-17.92c3.12-5.5,7.37-9.81,12.76-12.93
				C403.45,103.67,409.27,102.11,415.54,102.11z M415.84,108.63c-4.96,0-9.67,1.29-14.12,3.88c-4.45,2.59-7.92,6.07-10.42,10.45
				c-2.5,4.38-3.75,9.27-3.75,14.65c0,7.97,2.76,14.71,8.29,20.2c5.53,5.49,12.19,8.24,19.99,8.24c5.21,0,10.03-1.26,14.46-3.79
				c4.43-2.52,7.89-5.98,10.37-10.36c2.48-4.38,3.72-9.25,3.72-14.61c0-5.32-1.24-10.14-3.72-14.45
				c-2.48-4.31-5.98-7.75-10.48-10.34C425.67,109.93,420.89,108.63,415.84,108.63z"/>
			<path class="st0" d="M488.67,126.69l-4.1,4.24c-3.41-3.31-6.75-4.97-10.01-4.97c-2.07,0-3.85,0.68-5.33,2.05
				c-1.48,1.37-2.22,2.96-2.22,4.79c0,1.61,0.61,3.15,1.83,4.61c1.22,1.49,3.78,3.24,7.68,5.25c4.75,2.46,7.98,4.83,9.69,7.11
				c1.68,2.31,2.51,4.91,2.51,7.8c0,4.07-1.43,7.53-4.29,10.35s-6.44,4.24-10.73,4.24c-2.86,0-5.6-0.62-8.2-1.87
				c-2.6-1.25-4.76-2.96-6.46-5.15l4.01-4.56c3.26,3.68,6.72,5.52,10.38,5.52c2.56,0,4.74-0.82,6.54-2.46
				c1.8-1.64,2.7-3.57,2.7-5.79c0-1.82-0.59-3.45-1.78-4.88c-1.19-1.4-3.87-3.16-8.04-5.29c-4.48-2.31-7.53-4.59-9.14-6.84
				c-1.62-2.25-2.42-4.82-2.42-7.71c0-3.77,1.29-6.9,3.86-9.4c2.57-2.49,5.82-3.74,9.75-3.74
				C479.44,119.99,484.04,122.22,488.67,126.69z"/>
			<path class="st0" d="M505.54,102.84h6.38v18.43h10.12v5.52h-10.12v44.1h-6.38v-44.1h-8.71v-5.52h8.71V102.84z"/>
			<path class="st0" d="M573.41,154.42l5.38,2.83c-1.77,3.47-3.8,6.26-6.12,8.39c-2.31,2.13-4.92,3.75-7.81,4.86
				c-2.89,1.11-6.16,1.67-9.81,1.67c-8.09,0-14.42-2.65-18.99-7.96c-4.56-5.3-6.85-11.3-6.85-17.99c0-6.29,1.93-11.9,5.8-16.83
				c4.9-6.26,11.46-9.4,19.67-9.4c8.46,0,15.22,3.21,20.27,9.62c3.59,4.53,5.42,10.19,5.48,16.97h-44.65
				c0.12,5.76,1.96,10.49,5.53,14.17c3.56,3.69,7.96,5.53,13.2,5.53c2.53,0,4.98-0.44,7.37-1.32c2.39-0.88,4.42-2.04,6.1-3.5
				C569.65,160.01,571.46,157.66,573.41,154.42z M573.41,141.06c-0.85-3.4-2.09-6.13-3.72-8.16c-1.63-2.04-3.78-3.68-6.46-4.93
				c-2.68-1.25-5.49-1.87-8.45-1.87c-4.87,0-9.06,1.57-12.56,4.7c-2.56,2.28-4.49,5.7-5.8,10.26H573.41z"/>
			<path class="st0" d="M615.82,119.99c7.64,0,13.98,2.77,19.01,8.3c4.57,5.05,6.85,11.02,6.85,17.92c0,6.93-2.42,12.99-7.24,18.17
				c-4.83,5.18-11.03,7.78-18.62,7.78c-7.61,0-13.84-2.59-18.66-7.78s-7.24-11.24-7.24-18.17c0-6.87,2.28-12.83,6.85-17.88
				C601.79,122.77,608.14,119.99,615.82,119.99z M615.8,126.24c-5.31,0-9.87,1.96-13.68,5.88c-3.81,3.92-5.72,8.67-5.72,14.23
				c0,3.59,0.87,6.93,2.61,10.03c1.74,3.1,4.09,5.5,7.05,7.18s6.21,2.53,9.75,2.53c3.54,0,6.79-0.84,9.75-2.53
				c2.96-1.69,5.31-4.08,7.05-7.18c1.74-3.1,2.61-6.45,2.61-10.03c0-5.56-1.91-10.31-5.74-14.23
				C625.63,128.2,621.08,126.24,615.8,126.24z"/>
			<path class="st0" d="M653.58,121.27h6.38v9.12c2.52-3.47,5.42-6.07,8.7-7.8c3.28-1.73,6.94-2.6,10.98-2.6
				c7.05,0,13.08,2.54,18.09,7.62c5.01,5.08,7.52,11.19,7.52,18.33c0,7.3-2.48,13.49-7.45,18.58c-4.97,5.09-10.96,7.64-17.97,7.64
				c-3.95,0-7.58-0.82-10.89-2.46c-3.31-1.64-6.3-4.09-8.97-7.34v26.68h-6.38V121.27z M679.12,126.15c-5.52,0-10.17,1.93-13.95,5.79
				c-3.78,3.86-5.66,8.66-5.66,14.39c0,3.77,0.84,7.15,2.53,10.16c1.68,3.01,4.09,5.39,7.23,7.15c3.14,1.76,6.45,2.64,9.94,2.64
				c3.43,0,6.65-0.89,9.67-2.66c3.02-1.78,5.42-4.26,7.21-7.45c1.79-3.19,2.68-6.53,2.68-10.02c0-3.52-0.89-6.86-2.66-10.02
				c-1.77-3.16-4.16-5.61-7.17-7.36S682.67,126.15,679.12,126.15z"/>
			<path class="st0" d="M766.64,121.27v49.62h-6.29v-8.53c-2.68,3.25-5.68,5.7-9.01,7.34c-3.33,1.64-6.97,2.46-10.92,2.46
				c-7.02,0-13.02-2.55-17.99-7.64c-4.97-5.09-7.46-11.29-7.46-18.58c0-7.15,2.51-13.26,7.53-18.33c5.02-5.08,11.05-7.62,18.11-7.62
				c4.07,0,7.76,0.87,11.06,2.6c3.3,1.73,6.2,4.33,8.69,7.8v-9.12H766.64z M741.12,126.15c-3.55,0-6.83,0.87-9.84,2.62
				c-3.01,1.75-5.4,4.2-7.17,7.36c-1.78,3.16-2.66,6.5-2.66,10.02c0,3.49,0.9,6.83,2.69,10.02c1.79,3.19,4.2,5.67,7.22,7.45
				c3.02,1.78,6.26,2.66,9.73,2.66c3.49,0,6.8-0.88,9.93-2.64c3.13-1.76,5.53-4.15,7.22-7.15c1.68-3.01,2.53-6.39,2.53-10.16
				c0-5.74-1.89-10.54-5.67-14.39C751.3,128.08,746.65,126.15,741.12,126.15z"/>
			<path class="st0" d="M786.57,102.84h6.38v18.43h10.12v5.52h-10.12v44.1h-6.38v-44.1h-8.71v-5.52h8.71V102.84z"/>
			<path class="st0" d="M812.66,102.11h6.38v28.05c2.58-3.4,5.43-5.95,8.53-7.64c3.1-1.69,6.46-2.53,10.08-2.53
				c3.71,0,7,0.94,9.87,2.83c2.87,1.89,4.99,4.42,6.36,7.59c1.37,3.18,2.05,8.16,2.05,14.94v25.54h-6.38v-23.67
				c0-5.72-0.23-9.53-0.68-11.45c-0.79-3.28-2.23-5.75-4.31-7.41c-2.08-1.66-4.81-2.49-8.19-2.49c-3.86,0-7.32,1.28-10.38,3.83
				s-5.07,5.72-6.04,9.49c-0.61,2.43-0.91,6.93-0.91,13.5v18.2h-6.38V102.11z"/>
			<path class="st0" d="M894.56,126.69l-4.1,4.24c-3.41-3.31-6.75-4.97-10.01-4.97c-2.07,0-3.85,0.68-5.33,2.05
				c-1.48,1.37-2.22,2.96-2.22,4.79c0,1.61,0.61,3.15,1.83,4.61c1.22,1.49,3.78,3.24,7.68,5.25c4.75,2.46,7.98,4.83,9.69,7.11
				c1.68,2.31,2.51,4.91,2.51,7.8c0,4.07-1.43,7.53-4.29,10.35c-2.86,2.83-6.44,4.24-10.73,4.24c-2.86,0-5.6-0.62-8.2-1.87
				c-2.6-1.25-4.76-2.96-6.46-5.15l4.01-4.56c3.26,3.68,6.72,5.52,10.38,5.52c2.56,0,4.74-0.82,6.54-2.46
				c1.8-1.64,2.7-3.57,2.7-5.79c0-1.82-0.59-3.45-1.78-4.88c-1.19-1.4-3.87-3.16-8.04-5.29c-4.48-2.31-7.53-4.59-9.14-6.84
				c-1.62-2.25-2.42-4.82-2.42-7.71c0-3.77,1.29-6.9,3.86-9.4c2.57-2.49,5.82-3.74,9.75-3.74
				C885.33,119.99,889.93,122.22,894.56,126.69z"/>
		</g>
		<g>
			<path class="st0" d="M503.29,33.41h4.84v17.81l18.97-17.81h6.37L510.68,54.7l24.56,26.16h-6.32l-20.8-22.1v22.1h-4.84V33.41z"/>
			<path class="st0" d="M543.14,31.31c1.03,0,1.91,0.37,2.63,1.1c0.73,0.73,1.09,1.61,1.09,2.65c0,1.01-0.36,1.88-1.09,2.61
				c-0.73,0.73-1.6,1.1-2.63,1.1c-1.01,0-1.87-0.37-2.6-1.1c-0.73-0.73-1.09-1.6-1.09-2.61c0-1.03,0.36-1.91,1.09-2.65
				C541.27,31.68,542.14,31.31,543.14,31.31z M540.9,45.77h4.52v35.1h-4.52V45.77z"/>
			<path class="st0" d="M555.1,80.86V32.22h4.52V51.8c1.89-2.32,4.01-4.06,6.35-5.21c2.34-1.15,4.91-1.73,7.7-1.73
				c4.96,0,9.2,1.8,12.71,5.4c3.51,3.6,5.27,7.97,5.27,13.11c0,5.08-1.77,9.41-5.32,13c-3.54,3.59-7.81,5.39-12.79,5.39
				c-2.86,0-5.45-0.61-7.77-1.84c-2.32-1.23-4.37-3.06-6.16-5.52v6.45H555.1z M573.16,77.41c2.51,0,4.83-0.62,6.95-1.85
				c2.12-1.24,3.81-2.97,5.07-5.21s1.88-4.6,1.88-7.1c0-2.49-0.63-4.87-1.9-7.13c-1.27-2.26-2.97-4.02-5.1-5.27
				c-2.13-1.26-4.41-1.89-6.84-1.89c-2.47,0-4.81,0.63-7.03,1.89c-2.22,1.26-3.93,2.95-5.12,5.08c-1.19,2.13-1.79,4.53-1.79,7.19
				c0,4.06,1.33,7.46,4.01,10.19C565.97,76.05,569.26,77.41,573.16,77.41z"/>
			<path class="st0" d="M595.13,45.77h4.64l10.76,25.48l11.2-25.48h0.82l11.27,25.48l10.96-25.48h4.7l-15.25,35.1h-0.84
				l-11.22-25.13l-11.22,25.13h-0.84L595.13,45.77z"/>
			<path class="st0" d="M671.39,44.86c5.41,0,9.89,1.96,13.44,5.87c3.23,3.57,4.85,7.8,4.85,12.68c0,4.9-1.71,9.19-5.12,12.85
				c-3.41,3.67-7.81,5.5-13.17,5.5c-5.39,0-9.79-1.83-13.2-5.5c-3.41-3.67-5.12-7.95-5.12-12.85c0-4.86,1.62-9.07,4.85-12.65
				C661.47,46.83,665.96,44.86,671.39,44.86z M671.37,49.28c-3.76,0-6.98,1.39-9.68,4.16c-2.7,2.77-4.05,6.13-4.05,10.06
				c0,2.54,0.62,4.9,1.85,7.1c1.23,2.19,2.89,3.89,4.99,5.08c2.09,1.19,4.39,1.79,6.9,1.79c2.5,0,4.8-0.6,6.9-1.79
				c2.09-1.19,3.75-2.89,4.98-5.08c1.23-2.19,1.85-4.56,1.85-7.1c0-3.93-1.35-7.29-4.06-10.06
				C678.32,50.67,675.1,49.28,671.37,49.28z"/>
			<path class="st0" d="M696.32,45.77h4.61v5.13c1.38-2.02,2.83-3.53,4.36-4.53c1.53-1,3.12-1.5,4.77-1.5c1.25,0,2.58,0.4,4,1.19
				l-2.36,3.81c-0.95-0.41-1.74-0.61-2.39-0.61c-1.5,0-2.96,0.62-4.35,1.86c-1.4,1.24-2.46,3.16-3.19,5.76
				c-0.56,2-0.84,6.04-0.84,12.13v11.87h-4.61V45.77z"/>
			<path class="st0" d="M721.84,32.73h4.52v13.03h7.16v3.9h-7.16v31.19h-4.52V49.67h-6.16v-3.9h6.16V32.73z"/>
			<path class="st0" d="M740.29,32.22h4.52v19.84c1.83-2.41,3.84-4.21,6.03-5.4c2.19-1.19,4.57-1.79,7.13-1.79
				c2.62,0,4.95,0.67,6.98,2c2.03,1.33,3.53,3.12,4.5,5.37c0.97,2.25,1.45,5.77,1.45,10.57v18.06h-4.52V64.12
				c0-4.04-0.16-6.74-0.48-8.1c-0.56-2.32-1.58-4.07-3.05-5.24c-1.47-1.17-3.4-1.76-5.79-1.76c-2.73,0-5.18,0.9-7.34,2.71
				c-2.16,1.81-3.59,4.04-4.27,6.71c-0.43,1.72-0.65,4.9-0.65,9.55v12.87h-4.52V32.22z"/>
		</g>
		<linearGradient id="SVGID_1_" gradientUnits="userSpaceOnUse" x1="362.468" y1="93.6894" x2="911.7247" y2="93.6894">
			<stop  offset="3.966346e-03" style="stop-color:#FFFFFF"/>
			<stop  offset="0.0462" style="stop-color:#F2FAFD"/>
			<stop  offset="0.1673" style="stop-color:#D1EEF8"/>
			<stop  offset="0.2835" style="stop-color:#B9E5F4"/>
			<stop  offset="0.3914" style="stop-color:#ABE0F2"/>
			<stop  offset="0.4831" style="stop-color:#A6DEF1"/>
			<stop  offset="0.5762" style="stop-color:#ACE0F2"/>
			<stop  offset="0.7048" style="stop-color:#BEE7F5"/>
			<stop  offset="0.8533" style="stop-color:#DBF2F9"/>
			<stop  offset="1" style="stop-color:#FFFFFF"/>
		</linearGradient>
		
			<line style="fill:none;stroke:url(#SVGID_1_);stroke-width:5;stroke-miterlimit:10;" x1="362.47" y1="93.69" x2="911.72" y2="93.69"/>
		<g>
			<path class="st0" d="M521.03,225.16l4.54,4.81c-2.92,2.58-5.69,4.82-8.31,6.69c1.83,1.68,4.21,3.99,7.14,6.92
				c2.31,2.3,4.31,4.43,5.97,6.38h-9.35l-8.9-9.17c-5.59,4.5-10.13,7.44-13.63,8.8c-3.5,1.37-7.19,2.05-11.08,2.05
				c-5.17,0-9.32-1.48-12.45-4.45c-3.13-2.96-4.7-6.67-4.7-11.11c0-3.35,1.06-6.7,3.17-10.06c2.11-3.36,6.42-7.61,12.92-12.75
				c-3.67-4.44-6.04-7.71-7.08-9.82c-1.05-2.11-1.57-4.12-1.57-6.04c0-3.34,1.29-6.11,3.88-8.3c2.98-2.55,6.69-3.83,11.13-3.83
				c2.8,0,5.35,0.56,7.66,1.69c2.31,1.12,4.07,2.64,5.29,4.54c1.22,1.9,1.82,3.92,1.82,6.04c0,2.25-0.79,4.64-2.38,7.18
				c-1.58,2.54-4.7,5.79-9.36,9.74l10.17,10.67l6.66,6.76C516.16,229.28,518.97,227.03,521.03,225.16z M490.78,218.35
				c-5.7,4.29-9.43,7.7-11.2,10.24c-1.77,2.54-2.65,4.89-2.65,7.05c0,2.56,1.08,4.81,3.24,6.77c2.16,1.96,4.81,2.94,7.95,2.94
				c2.38,0,4.71-0.49,6.99-1.46c3.59-1.55,7.72-4.18,12.36-7.9l-10.58-10.9C495.07,223.18,493.03,220.93,490.78,218.35z
				 M491.59,209.47c3.26-2.52,5.71-5,7.35-7.43c1.16-1.73,1.74-3.27,1.74-4.61c0-1.55-0.75-2.89-2.26-4.01
				c-1.51-1.12-3.51-1.69-6.01-1.69c-2.38,0-4.32,0.58-5.81,1.73c-1.5,1.16-2.24,2.52-2.24,4.11c0,1.22,0.3,2.36,0.92,3.42
				C486.77,203.57,488.88,206.4,491.59,209.47z"/>
			<path class="st0" d="M566.77,182.88h13.36c7.66,0,12.83,0.34,15.51,1c3.83,0.94,6.96,2.88,9.4,5.82
				c2.43,2.93,3.65,6.62,3.65,11.06c0,4.47-1.19,8.16-3.56,11.06c-2.37,2.9-5.64,4.86-9.8,5.86c-3.04,0.73-8.73,1.1-17.06,1.1h-4.79
				v31.19h-6.7V182.88z M573.47,189.45v22.76l11.36,0.14c4.59,0,7.95-0.42,10.08-1.25c2.13-0.83,3.8-2.18,5.02-4.05
				c1.21-1.87,1.82-3.95,1.82-6.26c0-2.24-0.61-4.3-1.82-6.17c-1.22-1.87-2.82-3.19-4.81-3.98c-1.99-0.79-5.25-1.18-9.78-1.18
				H573.47z"/>
			<path class="st0" d="M623.25,179.91c1.45,0,2.69,0.52,3.72,1.55c1.03,1.03,1.54,2.28,1.54,3.74c0,1.43-0.52,2.66-1.54,3.69
				c-1.03,1.03-2.27,1.55-3.72,1.55c-1.42,0-2.65-0.52-3.68-1.55c-1.03-1.03-1.54-2.26-1.54-3.69c0-1.46,0.52-2.71,1.54-3.74
				C620.6,180.43,621.83,179.91,623.25,179.91z M620.08,200.35h6.38v49.62h-6.38V200.35z"/>
			<path class="st0" d="M638.78,181.19h6.38v68.77h-6.38V181.19z"/>
			<path class="st0" d="M707.87,200.35v49.62h-6.29v-8.53c-2.68,3.25-5.68,5.7-9.01,7.34c-3.33,1.64-6.97,2.46-10.92,2.46
				c-7.02,0-13.02-2.55-17.99-7.64c-4.97-5.09-7.46-11.29-7.46-18.58c0-7.15,2.51-13.26,7.53-18.33c5.02-5.08,11.05-7.62,18.11-7.62
				c4.07,0,7.76,0.87,11.06,2.6c3.3,1.73,6.2,4.33,8.69,7.8v-9.12H707.87z M682.36,205.23c-3.55,0-6.83,0.87-9.84,2.62
				c-3.01,1.75-5.4,4.2-7.17,7.36c-1.78,3.16-2.66,6.5-2.66,10.02c0,3.49,0.9,6.83,2.69,10.02c1.79,3.19,4.2,5.67,7.22,7.45
				c3.02,1.78,6.26,2.66,9.73,2.66c3.49,0,6.8-0.88,9.93-2.64c3.13-1.76,5.53-4.15,7.22-7.15c1.68-3.01,2.53-6.39,2.53-10.16
				c0-5.74-1.89-10.54-5.67-14.39C692.54,207.15,687.88,205.23,682.36,205.23z"/>
			<path class="st0" d="M727.8,181.92h6.38v18.43h10.12v5.52h-10.12v44.1h-6.38v-44.1h-8.71v-5.52h8.71V181.92z"/>
			<path class="st0" d="M795.67,233.5l5.38,2.83c-1.77,3.47-3.8,6.26-6.12,8.39c-2.31,2.13-4.92,3.75-7.81,4.86
				c-2.89,1.11-6.16,1.67-9.81,1.67c-8.09,0-14.42-2.65-18.99-7.96c-4.56-5.3-6.85-11.3-6.85-17.99c0-6.29,1.93-11.9,5.8-16.83
				c4.9-6.26,11.46-9.4,19.67-9.4c8.46,0,15.22,3.21,20.27,9.62c3.59,4.53,5.42,10.19,5.48,16.97h-44.65
				c0.12,5.76,1.96,10.49,5.53,14.17c3.56,3.69,7.96,5.53,13.2,5.53c2.53,0,4.98-0.44,7.37-1.32c2.39-0.88,4.42-2.04,6.1-3.5
				C791.91,239.09,793.72,236.74,795.67,233.5z M795.67,220.14c-0.85-3.4-2.09-6.13-3.72-8.16c-1.63-2.04-3.78-3.68-6.46-4.93
				c-2.68-1.25-5.49-1.87-8.45-1.87c-4.87,0-9.06,1.57-12.56,4.7c-2.56,2.28-4.49,5.7-5.8,10.26H795.67z"/>
			<path class="st0" d="M839.54,205.77l-4.1,4.24c-3.41-3.31-6.75-4.97-10.01-4.97c-2.07,0-3.85,0.68-5.33,2.05
				c-1.48,1.37-2.22,2.96-2.22,4.79c0,1.61,0.61,3.15,1.83,4.61c1.22,1.49,3.78,3.24,7.68,5.25c4.75,2.46,7.98,4.83,9.69,7.11
				c1.68,2.31,2.51,4.91,2.51,7.8c0,4.07-1.43,7.53-4.29,10.35c-2.86,2.83-6.44,4.24-10.73,4.24c-2.86,0-5.6-0.62-8.2-1.87
				c-2.6-1.25-4.76-2.96-6.46-5.15l4.01-4.56c3.26,3.68,6.72,5.52,10.38,5.52c2.56,0,4.74-0.82,6.54-2.46
				c1.8-1.64,2.7-3.57,2.7-5.79c0-1.82-0.59-3.45-1.78-4.88c-1.19-1.4-3.87-3.16-8.04-5.29c-4.48-2.31-7.53-4.59-9.14-6.84
				c-1.62-2.25-2.42-4.82-2.42-7.71c0-3.77,1.29-6.9,3.86-9.4c2.57-2.49,5.82-3.74,9.75-3.74
				C830.31,199.07,834.91,201.3,839.54,205.77z"/>
		</g>
	</g>
</g>
</svg>
