<svg height='100px' width='100px'  fill="#000000" xmlns:x="http://ns.adobe.com/Extensibility/1.0/" xmlns:i="http://ns.adobe.com/AdobeIllustrator/10.0/" xmlns:graph="http://ns.adobe.com/Graphs/1.0/" xmlns="http://www.w3.org/2000/svg" xmlns:xlink="http://www.w3.org/1999/xlink" version="1.1" x="0px" y="0px" viewBox="-949 951 100 100" style="enable-background:new -949 951 100 100;" xml:space="preserve"><g><g i:extraneous="self"><g><path d="M-937.5,967.1c1.1-0.9,2-3.2,3.2-4.5c-0.1,0.5-0.1,1-0.1,1.5c0,5.1,4.2,9.3,9.3,9.3c5.1,0,9.3-4.2,9.3-9.3     s-4.2-9.3-9.3-9.3c-3.7,0-6.9,2.2-8.4,5.3c-2-0.3-4.9-0.5-6.5,0.5c-1.7,1-3.1,4.3-6,5.7c-0.6,0.3-0.5,1.2,0.1,1.4     C-941.7,968.8-939.1,968.6-937.5,967.1z"></path><path d="M-861.6,995.4h-8c-1.6,0-2.8,1.4-2.6,3l1.1,8.3c0.2,1.8-1.1,3.3-2.9,3.3h-16.5l-3.7-11.4c-0.2-0.7-0.9-1.2-1.6-1.2h-3.1     c-0.4-0.8-1.1-1.4-2.1-1.6c-0.3-0.1-6.8-1.5-8.7-8.4c-1.5-5.4-5.4-11.2-11.9-11.2h-7.1c-6.6,0-11.1,5.9-11.9,11.5     c-0.6,4.2-3.3,17-3.3,17.1c-0.3,1.6,0.7,3.2,2.3,3.5c0.2,0,0.4,0.1,0.6,0.1c1.4,0,2.6-1,2.9-2.3c0.1-0.5,2.8-13.1,3.4-17.5     c0-0.2,0.1-0.4,0.1-0.6l0.8,14.7l-5.6,12.6c-0.9,2.1,0.6,4.5,2.9,4.5h2.1l-2.1,23c-0.2,2.2,1.4,4.1,3.6,4.3     c2.2,0.2,4.1-1.4,4.3-3.6l2.1-23.7h2.7l2.1,23.7c0.2,2,1.9,3.6,3.9,3.6c0.1,0,0.2,0,0.4,0c2.2-0.2,3.8-2.1,3.6-4.3l-2.1-23h2.1     c2.3,0,3.8-2.4,2.9-4.5l-5.6-12.6l0.8-14.4c0.1,0.3,0.2,0.5,0.2,0.7c2.9,10.5,12.8,12.5,13.3,12.6c0.2,0,0.4,0.1,0.6,0.1     c0.8,0,1.5-0.3,2.1-0.9h2.5l3.3,10.1v8.8c0,3.5,2.8,6.3,6.3,6.3h2.9l9,6.6l-4.7,3.5c-1-0.7-2.2-1.1-3.5-1.1c-3.3,0-6,2.7-6,6     s2.7,6,6,6c3.3,0,6-2.7,6-6c0-0.8-0.2-1.6-0.4-2.3l5.5-4l5.5,4c-0.3,0.7-0.4,1.5-0.4,2.3c0,3.3,2.7,6,6,6c3.3,0,6-2.7,6-6     s-2.7-6-6-6c-1.3,0-2.5,0.4-3.5,1.1l-4.7-3.5l9-6.6h3.8c3.1,0,5.5-2.5,5.5-5.5v-8.3v-6.8C-851.5,999.9-856,995.4-861.6,995.4z      M-883.8,1043.7c-1.5,0-2.6-1.2-2.6-2.6s1.2-2.6,2.6-2.6c1.5,0,2.6,1.2,2.6,2.6S-882.3,1043.7-883.8,1043.7z M-861.7,1038.4     c1.5,0,2.6,1.2,2.6,2.6s-1.2,2.6-2.6,2.6c-1.5,0-2.6-1.2-2.6-2.6S-863.1,1038.4-861.7,1038.4z M-872.7,1030.6l-6.2-4.5h12.3     L-872.7,1030.6z"></path></g></g></g></svg>